<?xml version="1.0" encoding="utf-8"?>
<!-- Generator: Adobe Illustrator 16.0.0, SVG Export Plug-In . SVG Version: 6.00 Build 0)  -->
<!DOCTYPE svg PUBLIC "-//W3C//DTD SVG 1.1//EN" "http://www.w3.org/Graphics/SVG/1.1/DTD/svg11.dtd">
<svg version="1.1" id="Layer_1" xmlns="http://www.w3.org/2000/svg" xmlns:xlink="http://www.w3.org/1999/xlink" x="0px" y="0px"
	 width="530.093px" height="162px" viewBox="0 0 530.093 162" enable-background="new 0 0 530.093 162" xml:space="preserve">
<g>
	<path fill="#324B9D" d="M195.345,89.454c0,2.433-0.812,4.46-2.433,6.081c-1.622,1.622-3.639,2.433-6.052,2.433h-26.698v-7.06
		h26.639c1.008,0,1.513-0.484,1.513-1.454c0-0.969-0.504-1.453-1.513-1.453h-19.994c-2.393,0-4.41-0.811-6.052-2.433
		c-1.642-1.621-2.462-3.668-2.462-6.141c0-2.433,0.82-4.454,2.462-6.066c1.642-1.611,3.659-2.417,6.052-2.417h26.728v7.03h-26.668
		c-1.008,0-1.513,0.484-1.513,1.453c0,1.028,0.504,1.543,1.513,1.543h19.994c2.413,0,4.43,0.806,6.052,2.417
		C194.533,85,195.345,87.021,195.345,89.454z"/>
	<path fill="#324B9D" d="M241.383,84.471c0,3.896-1.275,7.119-3.827,9.671c-2.551,2.551-5.775,3.826-9.67,3.826h-16.078
		c-3.896,0-7.13-1.275-9.7-3.826c-2.571-2.552-3.856-5.774-3.856-9.671c0-3.916,1.285-7.149,3.856-9.7
		c2.57-2.551,5.804-3.826,9.7-3.826h16.078c3.896,0,7.119,1.275,9.67,3.826S241.383,80.555,241.383,84.471z M234.353,84.471
		c0-1.978-0.589-3.545-1.765-4.702c-1.177-1.156-2.764-1.755-4.761-1.794h-16.019c-1.998,0.039-3.58,0.638-4.746,1.794
		c-1.167,1.157-1.75,2.725-1.75,4.702c0,1.998,0.583,3.57,1.75,4.717c1.167,1.147,2.749,1.721,4.746,1.721h16.019
		c1.998,0,3.584-0.573,4.761-1.721C233.764,88.041,234.353,86.469,234.353,84.471z"/>
	<path fill="#324B9D" d="M283.032,77.975h-29.991v6.259h23.375v7.119h-23.375v6.615h-7.06V70.944h37.051V77.975z"/>
	<path fill="#324B9D" d="M322.13,78.033h-15.01v19.994h-7.03V78.033h-15.01v-7.089h37.051V78.033z"/>
	<path fill="#E66D25" d="M371.224,70.944l-10.708,27.083h-6.259l-6.853-15.188c-4.252,9.395-6.546,14.457-6.882,15.188h-6.259
		l-10.679-27.083h7.594l6.437,16.196l7.416-16.196h4.746l7.417,16.196l6.437-16.196H371.224z"/>
	<path fill="#E66D25" d="M416.877,97.968h-8.988l-4.152-5.458h-18.273l-3.768,5.458h-8.691l19.074-26.965h3.826L416.877,97.968z
		 M398.634,86.072l-4.479-5.725l-4.094,5.725H398.634z"/>
	<path fill="#E66D25" d="M457.933,81.148c0,3.916-1.958,6.783-5.873,8.603l4.063,8.336h-7.891l-3.293-6.734
		c-0.197,0-5.863,0-16.997,0v6.675h-7.061V70.944h23.583c3.48,0,6.497,0.811,9.048,2.432
		C456.459,75.235,457.933,77.826,457.933,81.148z M450.903,81.148c0-1.068-0.851-1.898-2.551-2.492
		c-1.266-0.415-2.562-0.623-3.887-0.623h-16.522v6.26h16.464c1.364,0,2.68-0.218,3.945-0.652
		C450.052,83.066,450.903,82.236,450.903,81.148z"/>
	<path fill="#E66D25" d="M499.226,97.968h-37.051V70.944h37.051v7.03h-29.99v2.996h23.375v7.03h-23.375v2.907h29.99V97.968z"/>
</g>
<g>
	<g>
		<path fill="#324B9D" d="M114.268,60.114c-12.331,0-22.327,10-22.327,22.331c0,12.333,9.996,22.33,22.327,22.33
			c12.33,0,22.326-9.997,22.326-22.33C136.594,70.114,126.598,60.114,114.268,60.114z M114.268,94.6
			c-6.714,0-12.155-5.443-12.155-12.154c0-6.713,5.441-12.157,12.155-12.157c6.711,0,12.16,5.444,12.16,12.157
			C126.428,89.156,120.979,94.6,114.268,94.6z"/>
	</g>
	<g>
		<path fill="#E66D25" d="M114.391,55.115c4.336,0,8.42,1.021,12.057,2.791l10.146-19.593c-6.781-5.585-15.509-8.947-25.05-8.947
			c-21.578,0-39.068,17.208-39.068,38.434c0,17.153,11.434,31.682,27.203,36.621c-7.519-4.766-12.511-13.061-12.511-22.52
			C87.168,67.109,99.354,55.115,114.391,55.115z"/>
	</g>
	<g>
		<path fill="#324B9D" d="M69.614,64.848c0-14.77,7.479-27.791,18.853-35.481H68.984c-7.746,7.938-12.524,18.781-12.524,30.748
			c0,22.305,16.589,40.735,38.11,43.636C79.846,96.98,69.614,82.111,69.614,64.848z"/>
	</g>
	<g>
		<path fill="#324B9D" d="M50.556,56.374c0-9.994,3.015-19.281,8.177-27.008H25.271c-0.12,1.655-0.205,3.323-0.205,5.012
			c0,35.439,26.585,64.649,60.893,68.837C65.531,97.428,50.556,78.659,50.556,56.374z"/>
	</g>
	<g>
		<path fill="#324B9D" d="M133.965,109.985h-22.952c-4.114,0-7.44,3.334-7.44,7.443v5.582c0,4.113,3.326,7.444,7.44,7.444h22.952
			c4.113,0,7.437-3.331,7.437-7.444v-5.582C141.402,113.319,138.079,109.985,133.965,109.985z M134.854,124.875h-24.736v-9.309
			h24.736V124.875z"/>
	</g>
	<g>
		<path fill="#324B9D" d="M39.365,129.659c0,0,2.475,1.788,5.729,0l0,0l15.784-19.793h-7.713l-10.921,13.598l-10.956-13.598h-7.712
			L39.365,129.659L39.365,129.659z"/>
	</g>
	<g>
		<path fill="#324B9D" d="M93.452,109.985H75.094H70.5H69.6h-3.035h-3.513v7.443v5.582v7.444h3.267H69.6H70.5h2.611h20.341
			c4.104,0,7.437-3.331,7.437-7.444v-5.582C100.888,113.319,97.555,109.985,93.452,109.985z M94.344,124.875H69.6v-9.309h24.744
			V124.875z"/>
	</g>
</g>
</svg>
